# xmcd CD database file
#
# Track frame offsets:
#	150
#	11119
#	25114
#	36492
#	51022
#	62954
#	72977
#	91673
#	104310
#	117615
#	130547
#	140843
#	155232
#	168291
#	180010
#	193302
#	204554
#	218146
#	228104
#
# Disc length: 3187 seconds
#
# Revision: 0
# Processed by: cddbd v1.5.1PL0 Copyright (c) Steve Scherf et al.
# Submitted via: CDex 1.50beta9
#
DISCID=100c7113
DTITLE=Judy Garland - Over The Rainbow, CD 1
DYEAR=1900
DGENRE=Jazz
TTITLE0=Stompin at the Savoy
TTITLE1=All Gods Chiliun got Rhythm
TTITLE2=You can't have Everything
TTITLE3=Dear Mr. Gable - you made me love you
TTITLE4=It never rains but what it pours
TTITLE5=Swansee
TTITLE6=In Between
TTITLE7=Over the Rainbow
TTITLE8=Zing! Went the Strings of My Heart
TTITLE9=Embraceable You
TTITLE10=Figaro
TTITLE11=Oceans Apart
TTITLE12=Im Nobody's Baby
TTITLE13=Friendship
TTITLE14=Our Love Affair
TTITLE15=Alone
TTITLE16=Singin in the Rain
TTITLE17=I'm Always chasing Rainbows
TTITLE18=It's a grat Day for the Irish
EXTD=
EXTT0=
EXTT1=
EXTT2=
EXTT3=
EXTT4=
EXTT5=
EXTT6=
EXTT7=
EXTT8=
EXTT9=
EXTT10=
EXTT11=
EXTT12=
EXTT13=
EXTT14=
EXTT15=
EXTT16=
EXTT17=
EXTT18=
PLAYORDER=
